<?xml version="1.0" encoding="utf-8"?>
<!-- Generator: Adobe Illustrator 25.0.0, SVG Export Plug-In . SVG Version: 6.00 Build 0)  -->
<svg version="1.0" id="Ebene_1" xmlns="http://www.w3.org/2000/svg" xmlns:xlink="http://www.w3.org/1999/xlink" x="0px" y="0px"
	 width="131.8px" height="131.8px" viewBox="0 0 131.8 131.8" enable-background="new 0 0 131.8 131.8" xml:space="preserve">
<g>
	<defs>
		<rect id="SVGID_1_" width="131.8" height="131.8"/>
	</defs>
	<clipPath id="SVGID_2_">
		<use xlink:href="#SVGID_1_"  overflow="visible"/>
	</clipPath>
	<path clip-path="url(#SVGID_2_)" fill="#1D1D1B" d="M117,94.6l-17.9,37.2h2.6l8.1-17h7.5v17h2.6v-19.6l-1,0h-7.8l8.5-17.7H117z
		 M88.3,112.3h-2.6v19.6h12.4v-2.6h-9.8V112.3z M84.1,80l0,0.2l0.2,0.1c6.2-1.6,11.9-4,17.7-9.2c3.1-2.8,4.4-4.8,6.9-8.1
		c0.3-0.3,0.3-0.8,0.7-0.9c0.6-0.2,3.9,1.6,6.2,3c7.4,4.6,11.5,9.1,14,17.4c0.7,2.3,0.9,3.6,1.3,6.2c0,0.2,0.1,0.6,0.4,0.6
		c0.3,0,0.2-0.4,0.2-0.6l-0.7-4.1c-0.8-3.8-1.6-6-3.5-9.4c-2.9-5.3-5.4-8-10.4-11.5c-2.4-1.6-6.4-3.5-6.5-3.5
		c-0.1-0.3,0.7-1.5,1.2-2.5c1.8-4.5,3.2-10,2.7-12.1c-0.3-1.3-1.8-2.2-3.4-3c-1.4-0.8-3.2-1.1-4-1.1c-0.2,0-0.4,0-0.4,0.3
		c0,0.2,0.2,0.3,0.3,0.3c1.1,0.1,2.1,0.3,3.2,1c1.6,0.9,2.6,1.9,2.9,3.7c0.5,2.8-1.9,10-3.1,12.4C104.7,70,95.9,76.9,84.1,80
		 M83.7,94.6H73.6v37.2h10.1V94.6z M57,94.6l-8.7,17.7v19.6h10.4v-16.5l9.8-20.7H57z M42.6,94.6h-3.1l7.7,15.8l7.7-15.8H52l-4.9,9.7
		L42.6,94.6z M24.4,112.2l-12,0v19.6H15v-17h9.4v17h10.1V94.6H24.4V112.2z M10.4,94.6H0v37.2h10.4V94.6z M14.7,63.8
		c-5,3.4-7.5,6.2-10.4,11.5c-1.9,3.4-2.7,5.6-3.5,9.4l-0.7,4.1c0,0.2-0.1,0.5,0.2,0.6c0.3,0,0.3-0.3,0.4-0.6
		c0.5-2.6,0.6-3.9,1.3-6.2c2.6-8.3,6.6-12.8,14-17.4c2.3-1.4,5.5-3.2,6.2-3c0.3,0.1,0.4,0.5,0.7,0.9c2.5,3.3,3.8,5.4,6.9,8.1
		c5.8,5.2,11.5,7.6,17.7,9.2l0.2-0.1l0-0.2c-11.8-3.1-20.6-10.1-26-21c-1.2-2.5-3.6-9.7-3.1-12.4c0.3-1.8,1.3-2.7,2.9-3.7
		c1.1-0.7,2.1-0.9,3.2-1c0.2,0,0.3-0.1,0.3-0.3c0-0.2-0.2-0.3-0.4-0.3c-0.8,0-2.6,0.3-4,1.1c-1.6,0.8-3.1,1.7-3.4,3
		c-0.5,2.1,0.9,7.6,2.7,12.1c0.4,1,1.2,2.3,1.1,2.5C21.1,60.3,17,62.1,14.7,63.8 M38.2,4.3c-2.9-0.4-6.4,3.8-7.5,7.9
		c-1.3,4.6-0.5,10.9,3.4,11.9c4.6,1,7.2-4.3,8.1-8.8C43.1,10.8,42,4.7,38.2,4.3 M101.1,12.2c-1.2-4.1-4.7-8.3-7.5-7.9
		c-3.8,0.4-4.8,6.5-4,10.9c0.9,4.6,3.5,9.8,8.1,8.8C101.6,23.1,102.5,16.8,101.1,12.2 M78.6,24.4c0.1,0.2,0.1,0.4,0.1,0.6
		c-0.3,0.7-2.4,0.3-3.6-0.4c-0.7-0.5-1.6-1.1-1.8-1.7c-0.1-0.2-0.1-0.4,0-0.6c0.2-0.7,2.1-0.2,3.2,0.4C77.3,23,78.3,23.7,78.6,24.4
		 M58.6,22.3c0.3,0.8-0.8,1.7-1.8,2.3c-1.2,0.7-3.4,1.1-3.6,0.4c-0.3-0.7,1.1-1.8,2.2-2.4C56.5,22.1,58.4,21.6,58.6,22.3
		 M118.7,41.2c-0.8-2.9-3.6-6.7-7.1-10c-3.4-3.2-8.5-6.3-10.3-6.4c-1.9-0.1-2.3,1-3.4,1.1c-3.6,0.2-7.7-2.1-11-5.7
		c-0.5-0.5-1.1-1.1-1.2-1.4c-0.2-0.5-0.1-2.1,0-2.7c0.2-4,1.9-8.4,4.8-11.3c0.6-0.6,1.2-1.1,2.1-1.3c0.5-0.1,1.2,0.1,1.2-0.1
		c0.2-0.7-1.8-2.3-3.5-2.9c-1.3-0.5-2.3-0.6-3.5-0.5c-6.6,0.7-5.2,5.9-9.7,7.7c-1.3,0.5-2,0.8-3.4,1c-3,0.5-5.3-0.7-7.8-0.8
		c-2.6,0.1-4.8,1.3-7.8,0.8c-1.4-0.2-2.1-0.5-3.4-1c-4.5-1.8-3.2-7-9.7-7.7c-1.2-0.1-2.2,0-3.5,0.5c-1.6,0.7-3.7,2.2-3.5,2.9
		c0,0.2,0.8,0,1.2,0.1c0.9,0.2,1.5,0.7,2.1,1.3c2.9,2.9,4.6,7.3,4.8,11.3c0,0.6,0.1,2.2,0,2.7c-0.1,0.4-0.7,0.9-1.2,1.4
		c-3.2,3.5-7.4,5.8-11,5.7c-1-0.1-1.4-1.2-3.4-1.1c-1.8,0.1-6.8,3.2-10.3,6.4c-3.5,3.3-6.3,7.1-7.1,10c-0.8,2.9,2.2,5.7,2.7,5.4
		c0.3-0.2-0.1-0.9,0-1.4c0.1-0.6,0.5-1.2,0.7-1.5c1.2-1.8,3.6-2.5,5.6-3.1c3.1-0.9,19.6-1.1,27.4-1.1c5.4,0,10.9,0.1,16.4,0
		c5.5,0.1,10.9,0,16.4,0c7.9,0,24.3,0.2,27.4,1.1c2,0.6,4.4,1.3,5.6,3.1c0.2,0.3,0.5,0.9,0.7,1.5c0.1,0.5-0.3,1.3,0,1.4
		C116.5,46.8,119.5,44,118.7,41.2 M124.5,54.3h-1.3v-2.5h1c1.1,0,1.3,0,1.6,0.1c0.5,0.2,0.7,0.8,0.7,1.1
		C126.4,54.3,125.1,54.3,124.5,54.3 M126.2,55c1.2-0.3,1.9-1,1.9-2.2c0-0.9-0.5-1.8-1.5-2.1c-0.6-0.2-1.2-0.2-2.1-0.2h-3v9.1h1.6
		v-4.1h0.6c1.2,0,1.8,0.1,2,1.4c0.1,0.2,0.2,1.2,0.2,1.4c0.1,0.8,0.3,1.1,0.4,1.3h1.9c-0.4-0.8-0.5-1.3-0.7-2.7
		C127.3,55.7,126.9,55.4,126.2,55 M130.8,55.2c0,3.5-2.7,6.2-6.3,6.2c-3.5,0-6.3-2.7-6.3-6.3c0-3.5,2.8-6.3,6.3-6.3
		C128.1,48.9,130.8,51.7,130.8,55.2 M131.8,55.2c0-4-3.1-7.3-7.3-7.3c-3.9,0-7.2,3.1-7.2,7.3c0,4.3,3.5,7.2,7.2,7.2
		C128.6,62.4,131.8,59.2,131.8,55.2 M131.8,94.6h-10.1v37.2h10.1V94.6z"/>
</g>
</svg>
